<?xml version="1.0" encoding="iso-8859-1"?>
<!-- Generator: Adobe Illustrator 19.0.0, SVG Export Plug-In . SVG Version: 6.00 Build 0)  -->
<svg version="1.1" id="Layer_1" xmlns="http://www.w3.org/2000/svg" xmlns:xlink="http://www.w3.org/1999/xlink" x="0px" y="0px"
	 viewBox="0 0 512 512" style="enable-background:new 0 0 512 512;" xml:space="preserve">
<path style="fill:#FFCC75;" d="M111.842,366.599c-10.753,2.87-39.898,12.035-59.04,31.178
	c-30.891,30.891-35.69,79.041-36.344,97.793c17.744-0.624,66.673-5.251,97.78-36.357c19.14-19.14,28.305-48.281,31.178-59.04
	L111.842,366.599z"/>
<path style="fill:#C1E8E6;" d="M241.073,302.794c-1.595,1.595-3.686,2.392-5.777,2.392c-2.09,0-4.182-0.797-5.778-2.393
	l-36.726-36.729l-67.656,90.722l30.091,30.091l97.338-72.591C252.567,314.286,241.074,302.792,241.073,302.794z"/>
<path style="fill:#98D9D5;" d="M215,242.052l-11.555,11.555l37.629,37.632c3.191,3.191,3.19,8.363,0,11.555l11.493,11.493
	l0.482-0.359l16.913-16.913L215,242.052z"/>
<path style="fill:#185F8D;" d="M281.151,285.095l209.752-237.08c6.653-7.521,6.297-18.982-0.814-26.092
	c-3.599-3.599-8.385-5.582-13.475-5.582c-4.659,0-9.14,1.694-12.616,4.769l-237.08,209.752L281.151,285.095z"/>
<path style="fill:#082947;" d="M501.645,10.367C494.959,3.682,486.069,0,476.614,0c-8.651,0-16.976,3.15-23.443,8.871
	L209.586,224.378c-0.124,0.11-0.246,0.224-0.363,0.342l-23.103,23.103c-0.261,0.26-0.489,0.533-0.704,0.813
	c-0.023,0.031-0.051,0.056-0.074,0.086L109.6,350.286c-10.523,2.613-45.015,12.597-68.352,35.935
	C-2.76,430.229-0.061,501.149,0.076,504.147c0.192,4.22,3.57,7.598,7.79,7.79C8.009,511.943,9.327,512,11.64,512
	c17.111,0,75.893-2.975,114.152-41.234c23.336-23.336,33.321-57.828,35.935-68.351l101.564-75.743
	c0.316-0.235,0.613-0.493,0.892-0.772l23.112-23.112c0.118-0.118,0.232-0.239,0.342-0.363L503.143,58.842
	C515.507,44.864,514.849,23.573,501.645,10.367z M252.567,314.286l-97.338,72.591l-30.091-30.091l67.656-90.722l36.726,36.729
	c1.596,1.595,3.686,2.393,5.778,2.393c2.09,0,4.182-0.797,5.777-2.392c3.191-3.191,3.191-8.364,0-11.555l-37.629-37.632L215,242.052
	l54.962,54.962l-16.913,16.913L252.567,314.286z M16.457,495.569c0.655-18.752,5.452-66.902,36.344-97.793
	c19.142-19.142,48.287-28.307,59.04-31.178l33.573,33.573c-2.873,10.76-12.037,39.9-31.178,59.04
	C83.131,490.318,34.201,494.945,16.457,495.569z M476.614,16.34c5.091,0,9.876,1.983,13.477,5.582
	c7.109,7.109,7.466,18.57,0.814,26.092l-209.753,237.08l-54.234-54.234L463.999,21.11C467.475,18.034,471.955,16.34,476.614,16.34z"
	/>
<g>
</g>
<g>
</g>
<g>
</g>
<g>
</g>
<g>
</g>
<g>
</g>
<g>
</g>
<g>
</g>
<g>
</g>
<g>
</g>
<g>
</g>
<g>
</g>
<g>
</g>
<g>
</g>
<g>
</g>
</svg>
