<?xml version="1.0" encoding="iso-8859-1"?>
<!-- Generator: Adobe Illustrator 19.0.0, SVG Export Plug-In . SVG Version: 6.00 Build 0)  -->
<svg version="1.1" id="Layer_1" xmlns="http://www.w3.org/2000/svg" xmlns:xlink="http://www.w3.org/1999/xlink" x="0px" y="0px"
	 viewBox="0 0 512 512" style="enable-background:new 0 0 512 512;" xml:space="preserve">
<path style="fill:#CEE8FA;" d="M254.223,282.774L83.817,157.143c-5.192-3.829-5.192-11.59,0-15.418L254.223,16.093
	c6.323-4.663,15.261-0.148,15.261,7.708v251.264C269.485,282.922,260.547,287.437,254.223,282.774z"/>
<path style="fill:#2D527C;" d="M283.691,87.902V23.801C283.691,10.678,273.005,0,259.87,0c-5.076,0-9.943,1.61-14.076,4.657
	L75.387,130.288c-6.055,4.464-9.67,11.621-9.67,19.143c0,7.522,3.614,14.679,9.67,19.145l170.406,125.631
	c4.133,3.049,9,4.658,14.077,4.658c13.135,0,23.821-10.678,23.821-23.801V116.585c84.076,12.709,149.741,82.337,156.316,168.248
	h-77.176c-7.846,0-14.206,6.36-14.206,14.206c0,51.073-41.551,92.624-92.624,92.624s-92.624-41.551-92.624-92.624
	c0-7.846-6.36-14.206-14.206-14.206H57.245c-7.846,0-14.206,6.36-14.206,14.206C43.039,416.466,138.573,512,256,512
	s212.961-95.534,212.961-212.961C468.96,190.999,388.08,101.519,283.691,87.902z M255.278,265.901L97.3,149.433L255.278,32.965
	V265.901z M256,483.587c-96.977,0-176.725-75.197-184.007-170.342h63.799c7.056,60.069,58.275,106.831,120.207,106.831
	s113.151-46.763,120.207-106.831h63.799C432.725,408.39,352.977,483.587,256,483.587z"/>
<g>
</g>
<g>
</g>
<g>
</g>
<g>
</g>
<g>
</g>
<g>
</g>
<g>
</g>
<g>
</g>
<g>
</g>
<g>
</g>
<g>
</g>
<g>
</g>
<g>
</g>
<g>
</g>
<g>
</g>
</svg>
